<svg width="262" height="84" viewBox="0 0 262 84" fill="none" xmlns="http://www.w3.org/2000/svg">
<path d="M17.88 48.52C14 48.52 11.08 47.98 9.12 46.9C7.2 45.78 6.24 43.86 6.24 41.14C6.24 39.74 6.48 38.6 6.96 37.72C7.48 36.8 8.1 36.1 8.82 35.62C9.58 35.1 10.3 34.76 10.98 34.6L10.56 33.76C9.12 33.76 8.04 33.28 7.32 32.32C6.6 31.32 6.24 30.18 6.24 28.9C6.24 27.62 6.6 26.52 7.32 25.6C8.04 24.64 9.12 24.16 10.56 24.16H36.3C39.22 24.16 41.28 24.84 42.48 26.2C43.68 27.52 44.28 29.66 44.28 32.62V41.2C44.28 43.2 44.02 44.74 43.5 45.82C42.98 46.86 42.14 47.58 40.98 47.98C39.82 48.34 38.26 48.52 36.3 48.52H17.88ZM14.28 35.98C14.64 36.42 15.04 36.7 15.48 36.82C15.96 36.9 16.92 36.94 18.36 36.94H31.5C32.26 36.94 32.78 36.88 33.06 36.76C33.38 36.6 33.54 36.26 33.54 35.74V35.14C33.54 34.58 33.38 34.26 33.06 34.18C32.78 34.06 32.26 34 31.5 34H14.46C13.98 34 13.66 34.14 13.5 34.42C13.38 34.66 13.48 34.98 13.8 35.38L14.28 35.98ZM1.38 55.72C1.38 53.96 1.92 52.6 3 51.64C4.12 50.64 5.46 50.14 7.02 50.14H45.12C46.64 50.14 47.92 50.66 48.96 51.7C50 52.74 50.52 54.08 50.52 55.72C50.52 57.36 50 58.72 48.96 59.8C47.92 60.88 46.64 61.42 45.12 61.42H28.98C28.42 61.42 28.06 61.6 27.9 61.96C27.74 62.32 27.9 62.68 28.38 63.04C28.82 63.4 29.36 63.96 30 64.72C30.64 65.44 30.96 66.56 30.96 68.08C30.96 69.68 30.38 71.06 29.22 72.22C28.1 73.38 26.48 73.96 24.36 73.96C22.36 73.96 20.72 73.38 19.44 72.22C18.2 71.1 17.58 69.74 17.58 68.14C17.58 67.02 17.76 66.1 18.12 65.38C18.52 64.62 18.96 64.04 19.44 63.64C19.96 63.2 20.4 62.9 20.76 62.74C21.16 62.58 21.36 62.5 21.36 62.5L20.7 61.42H6.9C5.42 61.42 4.12 60.92 3 59.92C1.92 58.92 1.38 57.52 1.38 55.72ZM54.0656 43.9C53.9056 42.46 53.9856 41.12 54.3056 39.88C54.6656 38.64 55.1856 37.62 55.8656 36.82C56.5856 36.02 57.3856 35.56 58.2656 35.44L57.7256 34.12C57.2056 34.12 56.5656 33.82 55.8056 33.22C55.0456 32.62 54.6456 31.56 54.6056 30.04C54.5656 28 55.4656 26.38 57.3056 25.18C59.1856 23.94 62.3456 23.32 66.7856 23.32C70.0656 23.32 72.8456 24.08 75.1256 25.6C77.4456 27.08 79.0456 29.34 79.9256 32.38H83.8856C84.5256 32.38 84.9456 32.26 85.1456 32.02C85.3856 31.74 85.5056 31.22 85.5056 30.46V27.94C85.5056 26.3 86.0456 24.98 87.1256 23.98C88.2056 22.94 89.6656 22.42 91.5056 22.42C93.3056 22.42 94.7056 22.94 95.7056 23.98C96.7456 25.02 97.2656 26.38 97.2656 28.06V49.06C97.2656 50.58 96.7256 51.86 95.6456 52.9C94.6056 53.94 93.2256 54.46 91.5056 54.46C89.7856 54.46 88.3456 53.94 87.1856 52.9C86.0656 51.86 85.5056 50.58 85.5056 49.06V38.56H80.6456C80.6056 43.76 79.4256 47.56 77.1056 49.96C74.8256 52.32 71.5056 53.5 67.1456 53.5C63.5056 53.5 60.4856 52.72 58.0856 51.16C55.7256 49.56 54.3856 47.14 54.0656 43.9ZM65.0456 39.94C67.1256 39.94 68.5656 39.72 69.3656 39.28C70.1656 38.84 70.5656 38.12 70.5656 37.12C70.5656 36.12 70.1656 35.44 69.3656 35.08C68.5656 34.68 67.1256 34.48 65.0456 34.48C63.0856 34.48 61.6656 34.68 60.7856 35.08C59.9456 35.44 59.5256 36.12 59.5256 37.12C59.5256 38.12 59.9456 38.84 60.7856 39.28C61.6656 39.72 63.0856 39.94 65.0456 39.94ZM57.9056 69.7C57.2656 67.86 57.3056 66.1 58.0256 64.42C58.7856 62.7 60.4856 61.22 63.1256 59.98C65.1656 59.06 66.9056 58.2 68.3456 57.4C69.8256 56.56 71.2456 55.8 72.6056 55.12C73.8456 54.52 75.1856 53.86 76.6256 53.14C78.1056 52.38 79.6056 52 81.1256 52C82.4456 52 83.5656 52.42 84.4856 53.26C85.4456 54.06 86.1256 55.16 86.5256 56.56C86.9656 58 86.8856 59.24 86.2856 60.28C85.7256 61.32 85.1656 62.1 84.6056 62.62L86.3456 64.3C87.2656 62.86 88.3856 61.84 89.7056 61.24C91.0256 60.6 92.3656 60.38 93.7256 60.58C95.1256 60.74 96.3456 61.28 97.3856 62.2C98.4656 63.12 99.1656 64.42 99.4856 66.1C99.8056 67.46 99.7656 68.76 99.3656 70C98.9656 71.24 98.2656 72.24 97.2656 73C96.2656 73.8 94.9856 74.2 93.4256 74.2C91.7056 74.2 90.2656 73.8 89.1056 73C87.9856 72.24 86.8856 71.26 85.8056 70.06C84.9656 69.1 84.2056 68.3 83.5256 67.66C82.8856 67.02 82.0856 66.68 81.1256 66.64C79.7656 66.6 78.4256 67.02 77.1056 67.9C75.7856 68.78 74.0856 69.84 72.0056 71.08C69.9256 72.36 67.9456 73.24 66.0656 73.72C64.1856 74.2 62.5256 74.14 61.0856 73.54C59.6856 72.94 58.6256 71.66 57.9056 69.7ZM137.111 28C137.111 26.36 137.651 24.98 138.731 23.86C139.811 22.74 141.271 22.18 143.111 22.18C144.911 22.18 146.311 22.76 147.311 23.92C148.351 25.04 148.871 26.44 148.871 28.12V68.56C148.871 70.08 148.331 71.36 147.251 72.4C146.211 73.44 144.831 73.96 143.111 73.96C141.391 73.96 139.951 73.44 138.791 72.4C137.671 71.36 137.111 70.08 137.111 68.56V28ZM105.131 51.82C105.091 49.42 105.411 47.44 106.091 45.88C106.771 44.32 107.591 43.14 108.551 42.34C109.551 41.5 110.451 40.96 111.251 40.72L110.651 39.4C109.651 39.4 108.671 38.98 107.711 38.14C106.751 37.26 106.231 36.04 106.151 34.48C105.991 32 106.911 29.98 108.911 28.42C110.951 26.82 114.051 26.02 118.211 26.02C122.891 26.02 126.631 27.6 129.431 30.76C132.271 33.88 133.691 38.76 133.691 45.4C133.691 49.96 133.071 53.68 131.831 56.56C130.631 59.4 128.931 61.5 126.731 62.86C124.531 64.18 121.971 64.84 119.051 64.84C116.771 64.84 114.571 64.38 112.451 63.46C110.371 62.54 108.651 61.12 107.291 59.2C105.971 57.28 105.251 54.82 105.131 51.82ZM117.611 51.28C119.291 51.28 120.531 50.8 121.331 49.84C122.131 48.84 122.531 47.1 122.531 44.62C122.531 42.02 122.111 40.24 121.271 39.28C120.431 38.32 119.191 37.84 117.551 37.84C115.831 37.84 114.571 38.32 113.771 39.28C113.011 40.24 112.631 42.02 112.631 44.62C112.631 47.06 113.031 48.78 113.831 49.78C114.631 50.78 115.891 51.28 117.611 51.28ZM160.517 37.84C160.517 36.56 160.777 35.48 161.297 34.6C161.857 33.72 162.477 33.06 163.157 32.62C163.837 32.14 164.377 31.9 164.777 31.9V31.84C163.617 31.8 162.677 31.34 161.957 30.46C161.237 29.54 160.877 28.42 160.877 27.1C160.877 25.82 161.257 24.72 162.017 23.8C162.777 22.88 163.917 22.42 165.437 22.42H192.257C193.937 22.42 195.157 22.92 195.917 23.92C196.717 24.88 197.117 26.04 197.117 27.4C197.117 28.76 196.717 29.94 195.917 30.94C195.157 31.94 193.937 32.44 192.257 32.44H170.237C169.757 32.44 169.337 32.52 168.977 32.68C168.657 32.84 168.697 33.2 169.097 33.76C169.297 34.04 169.577 34.26 169.937 34.42C170.337 34.58 171.017 34.66 171.977 34.66H191.537C193.537 34.66 194.997 35.14 195.917 36.1C196.877 37.06 197.357 38.36 197.357 40C197.357 41.6 196.897 42.9 195.977 43.9C195.057 44.9 193.597 45.4 191.597 45.4H169.157C166.597 45.4 164.517 44.76 162.917 43.48C161.317 42.2 160.517 40.32 160.517 37.84ZM171.257 73.84C167.777 73.84 165.037 73.04 163.037 71.44C161.037 69.88 160.037 67.7 160.037 64.9C160.037 63.46 160.257 62.3 160.697 61.42C161.177 60.54 161.637 59.9 162.077 59.5C162.557 59.1 162.797 58.9 162.797 58.9L162.437 58.06H159.977C158.497 58.06 157.217 57.58 156.137 56.62C155.097 55.62 154.577 54.24 154.577 52.48C154.577 50.8 155.117 49.5 156.197 48.58C157.277 47.62 158.577 47.14 160.097 47.14H198.317C199.877 47.14 201.157 47.62 202.157 48.58C203.197 49.54 203.717 50.84 203.717 52.48C203.717 54.16 203.197 55.52 202.157 56.56C201.157 57.56 199.877 58.06 198.317 58.06H167.957C167.477 58.06 167.057 58.16 166.697 58.36C166.337 58.56 166.297 58.92 166.577 59.44C167.017 60.12 167.537 60.66 168.137 61.06C168.777 61.42 169.717 61.6 170.957 61.6H192.377C194.737 61.6 196.437 62.18 197.477 63.34C198.517 64.46 199.037 65.88 199.037 67.6C199.037 69.36 198.517 70.84 197.477 72.04C196.437 73.24 194.737 73.84 192.377 73.84H171.257ZM238.702 27.94C238.702 26.3 239.242 24.98 240.322 23.98C241.402 22.94 242.862 22.42 244.702 22.42C246.502 22.42 247.902 22.94 248.902 23.98C249.942 25.02 250.462 26.38 250.462 28.06V47.5C250.462 49.02 249.922 50.3 248.842 51.34C247.802 52.38 246.422 52.9 244.702 52.9C242.982 52.9 241.542 52.38 240.383 51.34C239.262 50.3 238.702 49.02 238.702 47.5V27.94ZM206.482 46.24C206.482 44.36 206.982 42.9 207.982 41.86C209.022 40.82 210.282 40.3 211.762 40.3V34.9C210.282 34.9 209.022 34.36 207.982 33.28C206.982 32.16 206.482 30.78 206.482 29.14C206.482 27.42 206.962 26.02 207.922 24.94C208.922 23.86 210.342 23.32 212.182 23.32H229.402C231.362 23.32 232.802 23.88 233.722 25C234.682 26.08 235.162 27.46 235.162 29.14C235.162 30.78 234.702 32.16 233.782 33.28C232.862 34.36 231.582 34.9 229.942 34.9V40.3C231.582 40.3 232.942 40.82 234.022 41.86C235.142 42.86 235.702 44.34 235.702 46.3C235.702 48.26 235.202 49.82 234.202 50.98C233.202 52.14 231.662 52.72 229.582 52.72H212.662C210.742 52.72 209.222 52.14 208.102 50.98C207.022 49.78 206.482 48.2 206.482 46.24ZM223.522 40.3C223.962 40.3 224.262 40.24 224.422 40.12C224.582 39.96 224.662 39.68 224.662 39.28V36.04C224.662 35.6 224.582 35.3 224.422 35.14C224.262 34.98 223.962 34.9 223.522 34.9H216.442C215.642 34.9 215.342 35.26 215.542 35.98L216.382 39.28C216.462 39.68 216.662 39.96 216.982 40.12C217.302 40.24 217.662 40.3 218.062 40.3H223.522ZM212.122 60.16C212.122 58.4 212.662 57.04 213.742 56.08C214.822 55.08 216.322 54.58 218.242 54.58H242.962C245.482 54.58 247.362 55.16 248.602 56.32C249.842 57.48 250.462 59.06 250.462 61.06C250.462 62.54 250.442 63.84 250.403 64.96C250.362 66.08 250.262 67.34 250.103 68.74C249.943 70.78 249.303 72.18 248.183 72.94C247.063 73.7 245.503 74.04 243.502 73.96C241.542 73.84 240.202 73.28 239.482 72.28C238.802 71.28 238.422 69.92 238.342 68.2C238.302 67.32 238.102 66.74 237.742 66.46C237.422 66.14 236.862 65.98 236.062 65.98H218.302C216.342 65.98 214.822 65.46 213.742 64.42C212.662 63.38 212.122 61.96 212.122 60.16Z" fill="#FF6363"/>
</svg>
